{
  "accessors": [
    {
      "bufferView": 2,
      "componentType": 5126,
      "count": 748,
      "max": [
        6.278499603271484,
        -7.779198169708252,
        -18.972427368164063
      ],
      "min": [
        -54.48554611206055,
        -8.983987808227539,
        -22.812057495117188
      ],
      "type": "VEC3"
    },
    {
      "bufferView": 2,
      "byteOffset": 8976,
      "componentType": 5126,
      "count": 748,
      "max": [
        1.0,
        1.0,
        1.0
      ],
      "min": [
        -1.0,
        -1.0,
        -1.0
      ],
      "type": "VEC3"
    },
    {
      "bufferView": 1,
      "componentType": 5126,
      "count": 748,
      "max": [
        0.9973168969154358,
        12.035064697265625
      ],
      "min": [
        0.0,
        -11.05755615234375
      ],
      "type": "VEC2"
    },
    {
      "bufferView": 1,
      "byteOffset": 5984,
      "componentType": 5126,
      "count": 748,
      "max": [
        0.9973168969154358,
        12.035064697265625
      ],
      "min": [
        0.0,
        -11.05755615234375
      ],
      "type": "VEC2"
    },
    {
      "bufferView": 0,
      "componentType": 5125,
      "count": 1164,
      "type": "SCALAR"
    },
    {
      "bufferView": 2,
      "byteOffset": 17952,
      "componentType": 5126,
      "count": 23290,
      "max": [
        3.224275588989258,
        14.606889724731445,
        16.947282791137695
      ],
      "min": [
        -50.70757293701172,
        -7.041863441467285,
        -16.96829605102539
      ],
      "type": "VEC3"
    },
    {
      "bufferView": 2,
      "byteOffset": 297432,
      "componentType": 5126,
      "count": 23290,
      "max": [
        1.0,
        1.0,
        1.0
      ],
      "min": [
        -1.0,
        -1.0,
        -1.0
      ],
      "type": "VEC3"
    },
    {
      "bufferView": 1,
      "byteOffset": 11968,
      "componentType": 5126,
      "count": 23290,
      "max": [
        1.0,
        0.9911669492721558
      ],
      "min": [
        -0.0009124912321567535,
        -0.0010185092687606812
      ],
      "type": "VEC2"
    },
    {
      "bufferView": 1,
      "byteOffset": 198288,
      "componentType": 5126,
      "count": 23290,
      "max": [
        1.0,
        0.9911669492721558
      ],
      "min": [
        -0.0009124912321567535,
        -0.0010185092687606812
      ],
      "type": "VEC2"
    },
    {
      "bufferView": 0,
      "byteOffset": 4656,
      "componentType": 5125,
      "count": 67104,
      "type": "SCALAR"
    },
    {
      "bufferView": 2,
      "byteOffset": 576912,
      "componentType": 5126,
      "count": 36800,
      "max": [
        0.5733568668365479,
        11.640666961669922,
        15.033862113952637
      ],
      "min": [
        -48.337257385253906,
        -7.051565170288086,
        -14.06865406036377
      ],
      "type": "VEC3"
    },
    {
      "bufferView": 2,
      "byteOffset": 1018512,
      "componentType": 5126,
      "count": 36800,
      "max": [
        1.0,
        1.0,
        1.0
      ],
      "min": [
        -1.0,
        -1.0,
        -1.0
      ],
      "type": "VEC3"
    },
    {
      "bufferView": 1,
      "byteOffset": 384608,
      "componentType": 5126,
      "count": 36800,
      "max": [
        1.0,
        1.0
      ],
      "min": [
        0.0,
        0.0
      ],
      "type": "VEC2"
    },
    {
      "bufferView": 1,
      "byteOffset": 679008,
      "componentType": 5126,
      "count": 36800,
      "max": [
        1.0,
        1.0
      ],
      "min": [
        0.0,
        0.0
      ],
      "type": "VEC2"
    },
    {
      "bufferView": 0,
      "byteOffset": 273072,
      "componentType": 5125,
      "count": 57651,
      "type": "SCALAR"
    },
    {
      "bufferView": 2,
      "byteOffset": 1460112,
      "componentType": 5126,
      "count": 4458,
      "max": [
        4.544389724731445,
        9.568536758422852,
        20.77995491027832
      ],
      "min": [
        -51.93336486816406,
        -8.988053321838379,
        -18.97979736328125
      ],
      "type": "VEC3"
    },
    {
      "bufferView": 2,
      "byteOffset": 1513608,
      "componentType": 5126,
      "count": 4458,
      "max": [
        1.0,
        1.0,
        1.0
      ],
      "min": [
        -1.0,
        -1.0,
        -1.0
      ],
      "type": "VEC3"
    },
    {
      "bufferView": 1,
      "byteOffset": 973408,
      "componentType": 5126,
      "count": 4458,
      "max": [
        0.9959075450897217,
        1.0010393857955933
      ],
      "min": [
        -5.036592483520508e-05,
        0.05903272330760956
      ],
      "type": "VEC2"
    },
    {
      "bufferView": 1,
      "byteOffset": 1009072,
      "componentType": 5126,
      "count": 4458,
      "max": [
        0.9959075450897217,
        1.0010393857955933
      ],
      "min": [
        -5.036592483520508e-05,
        0.05903272330760956
      ],
      "type": "VEC2"
    },
    {
      "bufferView": 0,
      "byteOffset": 503676,
      "componentType": 5125,
      "count": 11184,
      "type": "SCALAR"
    },
    {
      "bufferView": 2,
      "byteOffset": 1567104,
      "componentType": 5126,
      "count": 44,
      "max": [
        -13.424016952514648,
        -1.1581599712371826,
        -3.843287467956543
      ],
      "min": [
        -47.8022346496582,
        -1.6800556182861328,
        -13.674310684204102
      ],
      "type": "VEC3"
    },
    {
      "bufferView": 2,
      "byteOffset": 1567632,
      "componentType": 5126,
      "count": 44,
      "max": [
        0.0,
        0.998579740524292,
        -0.05327875167131424
      ],
      "min": [
        0.0,
        0.9985796809196472,
        -0.05327881500124931
      ],
      "type": "VEC3"
    },
    {
      "bufferView": 1,
      "byteOffset": 1044736,
      "componentType": 5126,
      "count": 44,
      "max": [
        0.9874316453933716,
        0.20584087073802948
      ],
      "min": [
        0.77354896068573,
        0.02051793783903122
      ],
      "type": "VEC2"
    },
    {
      "bufferView": 0,
      "byteOffset": 548412,
      "componentType": 5125,
      "count": 66,
      "type": "SCALAR"
    }
  ],
  "asset": {
    "extras": {
      "author": "simple and extensive design (https://sketchfab.com/simpleandextensivedesign)",
      "license": "CC-BY-4.0 (http://creativecommons.org/licenses/by/4.0/)",
      "source": "https://sketchfab.com/3d-models/old-station-industrial-building-series-no1-33cb2ead0c3b4f34a2f04d88ab30da0a",
      "title": "Old Station (industrial building series no:1)"
    },
    "generator": "Sketchfab-12.68.0",
    "version": "2.0"
  },
  "bufferViews": [
    {
      "buffer": 0,
      "byteLength": 548676,
      "name": "floatBufferViews",
      "target": 34963
    },
    {
      "buffer": 0,
      "byteLength": 1045088,
      "byteOffset": 548676,
      "byteStride": 8,
      "name": "floatBufferViews",
      "target": 34962
    },
    {
      "buffer": 0,
      "byteLength": 1568160,
      "byteOffset": 1593764,
      "byteStride": 12,
      "name": "floatBufferViews",
      "target": 34962
    }
  ],
  "buffers": [
    {
      "byteLength": 3161924,
      "uri": "scene.bin"
    }
  ],
  "images": [
    {
      "uri": "textures/Demiryolu_baseColor.png"
    },
    {
      "uri": "textures/cati_baseColor.png"
    },
    {
      "uri": "textures/duvar_baseColor.png"
    },
    {
      "uri": "textures/duvar2_baseColor.png"
    }
  ],
  "materials": [
    {
      "alphaMode": "BLEND",
      "doubleSided": true,
      "name": "Demiryolu",
      "pbrMetallicRoughness": {
        "baseColorTexture": {
          "index": 0
        },
        "metallicFactor": 0.0,
        "roughnessFactor": 0.6
      }
    },
    {
      "alphaMode": "BLEND",
      "doubleSided": true,
      "name": "cati",
      "pbrMetallicRoughness": {
        "baseColorTexture": {
          "index": 1
        },
        "metallicFactor": 0.0,
        "roughnessFactor": 0.6
      }
    },
    {
      "alphaMode": "BLEND",
      "doubleSided": true,
      "name": "duvar",
      "pbrMetallicRoughness": {
        "baseColorTexture": {
          "index": 2
        },
        "metallicFactor": 0.0,
        "roughnessFactor": 0.6
      }
    },
    {
      "alphaMode": "BLEND",
      "doubleSided": true,
      "name": "duvar2",
      "pbrMetallicRoughness": {
        "baseColorTexture": {
          "index": 3
        },
        "metallicFactor": 0.0,
        "roughnessFactor": 0.6
      }
    },
    {
      "doubleSided": true,
      "name": "aiStandardSurface1",
      "pbrMetallicRoughness": {
        "metallicFactor": 0.0,
        "roughnessFactor": 0.6
      }
    }
  ],
  "meshes": [
    {
      "name": "polySurface331_Demiryolu_0",
      "primitives": [
        {
          "attributes": {
            "NORMAL": 1,
            "POSITION": 0,
            "TEXCOORD_0": 2,
            "TEXCOORD_1": 3
          },
          "indices": 4,
          "material": 0,
          "mode": 4
        }
      ]
    },
    {
      "name": "polySurface331_cati_0",
      "primitives": [
        {
          "attributes": {
            "NORMAL": 6,
            "POSITION": 5,
            "TEXCOORD_0": 7,
            "TEXCOORD_1": 8
          },
          "indices": 9,
          "material": 1,
          "mode": 4
        }
      ]
    },
    {
      "name": "polySurface331_duvar_0",
      "primitives": [
        {
          "attributes": {
            "NORMAL": 11,
            "POSITION": 10,
            "TEXCOORD_0": 12,
            "TEXCOORD_1": 13
          },
          "indices": 14,
          "material": 2,
          "mode": 4
        }
      ]
    },
    {
      "name": "polySurface331_duvar2_0",
      "primitives": [
        {
          "attributes": {
            "NORMAL": 16,
            "POSITION": 15,
            "TEXCOORD_0": 17,
            "TEXCOORD_1": 18
          },
          "indices": 19,
          "material": 3,
          "mode": 4
        }
      ]
    },
    {
      "name": "polySurface331_aiStandardSurface1_0",
      "primitives": [
        {
          "attributes": {
            "NORMAL": 21,
            "POSITION": 20,
            "TEXCOORD_0": 22
          },
          "indices": 23,
          "material": 4,
          "mode": 4
        }
      ]
    }
  ],
  "nodes": [
    {
      "children": [
        1
      ],
      "matrix": [
        1.0,
        0.0,
        0.0,
        0.0,
        0.0,
        2.220446049250313e-16,
        -1.0,
        0.0,
        0.0,
        1.0,
        2.220446049250313e-16,
        0.0,
        0.0,
        0.0,
        0.0,
        1.0
      ],
      "name": "Sketchfab_model"
    },
    {
      "children": [
        2
      ],
      "matrix": [
        1.0,
        0.0,
        0.0,
        0.0,
        0.0,
        0.0,
        1.0,
        0.0,
        0.0,
        -1.0,
        0.0,
        0.0,
        0.0,
        0.0,
        0.0,
        1.0
      ],
      "name": "67807cc8e8ec429e8f7e99525d187f1e.fbx"
    },
    {
      "children": [
        3
      ],
      "name": "RootNode"
    },
    {
      "children": [
        4,
        5,
        6,
        7,
        8
      ],
      "name": "polySurface331"
    },
    {
      "mesh": 0,
      "name": "polySurface331_Demiryolu_0"
    },
    {
      "mesh": 1,
      "name": "polySurface331_cati_0"
    },
    {
      "mesh": 2,
      "name": "polySurface331_duvar_0"
    },
    {
      "mesh": 3,
      "name": "polySurface331_duvar2_0"
    },
    {
      "mesh": 4,
      "name": "polySurface331_aiStandardSurface1_0"
    }
  ],
  "samplers": [
    {
      "magFilter": 9729,
      "minFilter": 9987,
      "wrapS": 10497,
      "wrapT": 10497
    }
  ],
  "scene": 0,
  "scenes": [
    {
      "name": "Sketchfab_Scene",
      "nodes": [
        0
      ]
    }
  ],
  "textures": [
    {
      "sampler": 0,
      "source": 0
    },
    {
      "sampler": 0,
      "source": 1
    },
    {
      "sampler": 0,
      "source": 2
    },
    {
      "sampler": 0,
      "source": 3
    }
  ]
}
