{
  "accessors": [
    {
      "bufferView": 3,
      "componentType": 5126,
      "count": 7620,
      "max": [
        380.0,
        970.0000610351563,
        400.0
      ],
      "min": [
        -380.0,
        -5.161607022330893e-21,
        -400.0
      ],
      "type": "VEC3"
    },
    {
      "bufferView": 3,
      "byteOffset": 91440,
      "componentType": 5126,
      "count": 7620,
      "max": [
        1.0,
        1.0,
        1.0
      ],
      "min": [
        -1.0,
        -1.0,
        -1.0
      ],
      "type": "VEC3"
    },
    {
      "bufferView": 2,
      "componentType": 5126,
      "count": 7620,
      "max": [
        0.99609375,
        0.9921875
      ],
      "min": [
        0.00390625,
        0.0078125
      ],
      "type": "VEC2"
    },
    {
      "bufferView": 1,
      "componentType": 5125,
      "count": 11430,
      "type": "SCALAR"
    },
    {
      "bufferView": 5,
      "componentType": 5126,
      "count": 3,
      "max": [
        1.0,
        0.0,
        0.0,
        0.0,
        0.0,
        1.0,
        0.0,
        0.0,
        0.0,
        1.0000001192092896,
        1.0,
        0.0,
        0.0,
        7.033348083496094e-05,
        590.0001220703125,
        1.0
      ],
      "min": [
        1.0,
        0.0,
        0.0,
        0.0,
        0.0,
        -1.1920928955078125e-07,
        -1.0000001192092896,
        0.0,
        0.0,
        0.0,
        -1.1920928955078125e-07,
        0.0,
        0.0,
        -174.9999237060547,
        0.0,
        1.0
      ],
      "type": "MAT4"
    },
    {
      "bufferView": 0,
      "componentType": 5123,
      "count": 7620,
      "type": "VEC4"
    },
    {
      "bufferView": 4,
      "componentType": 5126,
      "count": 7620,
      "max": [
        1.0,
        0.0,
        0.0,
        0.0
      ],
      "min": [
        1.0,
        0.0,
        0.0,
        0.0
      ],
      "type": "VEC4"
    },
    {
      "bufferView": 6,
      "componentType": 5126,
      "count": 601,
      "max": [
        10.0
      ],
      "min": [
        0.0
      ],
      "type": "SCALAR"
    },
    {
      "bufferView": 7,
      "componentType": 5126,
      "count": 601,
      "max": [
        6.091088700833049e-17,
        1.0,
        2.1974317670267197e-17,
        1.0
      ],
      "min": [
        -6.123234262925839e-17,
        -0.8633955121040344,
        -6.123234262925839e-17,
        -0.5
      ],
      "type": "VEC4"
    }
  ],
  "animations": [
    {
      "channels": [
        {
          "sampler": 0,
          "target": {
            "node": 16,
            "path": "rotation"
          }
        }
      ],
      "name": "Windmill",
      "samplers": [
        {
          "input": 7,
          "interpolation": "LINEAR",
          "output": 8
        }
      ]
    }
  ],
  "asset": {
    "extras": {
      "author": "danidesa (https://sketchfab.com/danidesa)",
      "license": "CC-BY-4.0 (http://creativecommons.org/licenses/by/4.0/)",
      "source": "https://sketchfab.com/3d-models/low-poly-windmill-f9dafdc464b043e5b738289006dd6509",
      "title": "Low Poly Windmill"
    },
    "generator": "Sketchfab-12.67.0",
    "version": "2.0"
  },
  "bufferViews": [
    {
      "buffer": 0,
      "byteLength": 60960,
      "byteStride": 8,
      "name": "shortBufferViews",
      "target": 34962
    },
    {
      "buffer": 0,
      "byteLength": 45720,
      "byteOffset": 60960,
      "name": "floatBufferViews",
      "target": 34963
    },
    {
      "buffer": 0,
      "byteLength": 60960,
      "byteOffset": 106680,
      "byteStride": 8,
      "name": "floatBufferViews",
      "target": 34962
    },
    {
      "buffer": 0,
      "byteLength": 182880,
      "byteOffset": 167640,
      "byteStride": 12,
      "name": "floatBufferViews",
      "target": 34962
    },
    {
      "buffer": 0,
      "byteLength": 121920,
      "byteOffset": 350520,
      "byteStride": 16,
      "name": "floatBufferViews",
      "target": 34962
    },
    {
      "buffer": 0,
      "byteLength": 192,
      "byteOffset": 472440,
      "name": "floatBufferViews"
    },
    {
      "buffer": 0,
      "byteLength": 2404,
      "byteOffset": 472632,
      "name": "floatBufferViews"
    },
    {
      "buffer": 0,
      "byteLength": 9616,
      "byteOffset": 475036,
      "byteStride": 16,
      "name": "floatBufferViews"
    }
  ],
  "buffers": [
    {
      "byteLength": 484652,
      "uri": "scene.bin"
    }
  ],
  "images": [
    {
      "uri": "textures/Standard_baseColor.png"
    }
  ],
  "materials": [
    {
      "doubleSided": true,
      "name": "Standard",
      "pbrMetallicRoughness": {
        "baseColorTexture": {
          "index": 0
        },
        "metallicFactor": 0.0,
        "roughnessFactor": 0.6602515244
      }
    }
  ],
  "meshes": [
    {
      "name": "Windmill_Standard_0",
      "primitives": [
        {
          "attributes": {
            "JOINTS_0": 5,
            "NORMAL": 1,
            "POSITION": 0,
            "TEXCOORD_0": 2,
            "WEIGHTS_0": 6
          },
          "indices": 3,
          "material": 0,
          "mode": 4
        }
      ]
    }
  ],
  "nodes": [
    {
      "children": [
        1
      ],
      "matrix": [
        0.025699689984321594,
        0.0,
        0.0,
        0.0,
        0.0,
        5.7064775092644724e-18,
        -0.025699689984321594,
        0.0,
        0.0,
        0.025699689984321594,
        5.7064775092644724e-18,
        0.0,
        0.0,
        0.0,
        0.0,
        1.0
      ],
      "name": "Sketchfab_model"
    },
    {
      "children": [
        2
      ],
      "matrix": [
        1.0,
        0.0,
        0.0,
        0.0,
        0.0,
        0.0,
        1.0,
        0.0,
        0.0,
        -1.0,
        0.0,
        0.0,
        0.0,
        0.0,
        0.0,
        1.0
      ],
      "name": "WindmillScene.fbx"
    },
    {
      "children": [
        3
      ],
      "name": "Object_2"
    },
    {
      "children": [
        4
      ],
      "name": "RootNode"
    },
    {
      "children": [
        5,
        7,
        10
      ],
      "name": "WindmillScene"
    },
    {
      "children": [
        6
      ],
      "name": "Main_Camera",
      "rotation": [
        -0.09287050366401672,
        0.46289509534835815,
        -0.17340566217899323,
        0.8643110990524292
      ],
      "translation": [
        -1163.7137451171875,
        1263.2010498046875,
        1749.109619140625
      ]
    },
    {
      "name": "Object_6"
    },
    {
      "children": [
        8
      ],
      "name": "Directional_Light",
      "rotation": [
        0.4542187750339508,
        0.2284175008535385,
        -0.12170752882957458,
        0.8524658679962158
      ],
      "translation": [
        0.0,
        300.0,
        0.0
      ]
    },
    {
      "children": [
        9
      ],
      "matrix": [
        1.0,
        0.0,
        0.0,
        0.0,
        0.0,
        2.220446049250313e-16,
        1.0,
        0.0,
        0.0,
        -1.0,
        2.220446049250313e-16,
        0.0,
        0.0,
        0.0,
        0.0,
        1.0
      ],
      "name": "Object_8"
    },
    {
      "name": "Object_9"
    },
    {
      "children": [
        11
      ],
      "name": "Windmill"
    },
    {
      "children": [
        12,
        14,
        13
      ],
      "name": "Object_11"
    },
    {
      "children": [
        15
      ],
      "name": "_rootJoint"
    },
    {
      "matrix": [
        1.0,
        0.0,
        0.0,
        0.0,
        0.0,
        1.0,
        -1.3234889800848443e-23,
        0.0,
        0.0,
        1.3234889800848443e-23,
        1.0,
        0.0,
        0.0,
        0.0,
        0.0,
        1.0
      ],
      "name": "Object_13"
    },
    {
      "mesh": 0,
      "name": "Object_14",
      "skin": 0
    },
    {
      "children": [
        16
      ],
      "name": "Root_00",
      "rotation": [
        0.7071068286895752,
        0.0,
        0.0,
        0.7071067094802856
      ],
      "scale": [
        1.0,
        0.9999998807907104,
        0.9999998807907104
      ],
      "translation": [
        0.0,
        590.0,
        0.0
      ]
    },
    {
      "name": "Bone_01",
      "rotation": [
        -1.700683339409025e-21,
        -0.0,
        0.0,
        1.0
      ],
      "translation": [
        0.0,
        175.0,
        -4.3511390686035156e-05
      ]
    }
  ],
  "samplers": [
    {
      "magFilter": 9729,
      "minFilter": 9987,
      "wrapS": 10497,
      "wrapT": 10497
    }
  ],
  "scene": 0,
  "scenes": [
    {
      "name": "Sketchfab_Scene",
      "nodes": [
        0
      ]
    }
  ],
  "skins": [
    {
      "inverseBindMatrices": 4,
      "joints": [
        12,
        15,
        16
      ],
      "skeleton": 12
    }
  ],
  "textures": [
    {
      "sampler": 0,
      "source": 0
    }
  ]
}
